<svg xmlns="http://www.w3.org/2000/svg" viewBox="0 0 123 70"><title>Монтажная область 1</title><path d="M122.36 35.73c-.34-.06-.73 0-1-.37a.85.85 0 0 0-.63-.39.58.58 0 0 1-.11-.65c.13-.26-.13-.42-.24-.62.42-.71-.26-1-.53-1.48a.74.74 0 0 0 0-.84.46.46 0 0 1-.05-.4 9.79 9.79 0 0 0 .14-1.27 2.13 2.13 0 0 0-.69-2.08 4 4 0 0 1-.94-1.25 3 3 0 0 0-1.31-1.62c.09-.49.6-.86.31-1.4-.62-.12-1 .32-1.37.64-.08-.21 0-.41-.11-.59a.37.37 0 0 0-.55.13 1.82 1.82 0 0 0-.22.34.6.6 0 0 1-.69.38 5.71 5.71 0 0 0-1.11 0c-.38-.55-.83-.24-1.23-.07s-1 .38-.82 1.06a6.75 6.75 0 0 0-2.09 1.19c-.3.28-.53.58-.32 1a7.41 7.41 0 0 0-1.3 1.24.55.55 0 0 0-.08.7v.1c0 .04-.15.27-.35.27a1.11 1.11 0 0 1-.45-1c.05-1.21 0-2.42.07-3.63.08-2.55 0-5.11.11-7.67.06-2.06 0-4.12 0-6.19a1 1 0 0 1 .32-.87c.17-.13.16-.36.18-.57a35.91 35.91 0 0 0 .11-3.63c0-.4.11-.83-.27-1.14a.18.18 0 0 1 0-.15 1.72 1.72 0 0 0-.29-1 1.05 1.05 0 0 1 .1-.2 1.83 1.83 0 0 1 .28-.29c.43-.33.58-.62.27-1.31s-.64-1.24-.94-1.87c-.11-.24-.28-.33-.6-.19a26.34 26.34 0 0 1-1 2.43c-.24.55-.16.7.31 1.08s.46.43.17.92a1.32 1.32 0 0 0-.16.32c-.08.3-.29.37-.56.4a5 5 0 0 1-2.72-.47 5 5 0 0 0-2.18-.56 6.47 6.47 0 0 0-2.26.5c-1.66.63-3.24 1.42-4.86 2.14a5.24 5.24 0 0 1-3.54.36A2.63 2.63 0 0 1 87.29 6c-.33-.12-.46.08-.54.32A1.74 1.74 0 0 0 87 8.06a5.22 5.22 0 0 0 .94.92 4.92 4.92 0 0 0 .93.54 2.17 2.17 0 0 1-2.78-.92c-.3-.06-.38.11-.39.38a2.75 2.75 0 0 0 .85 2.12 4.26 4.26 0 0 0 4.13 1.34 7.77 7.77 0 0 0 2.18-.93A14 14 0 0 1 96 10.14a5.88 5.88 0 0 1 4.65.34c.34.18.7.33 1.05.49a3.39 3.39 0 0 0 3.42-.17c.08-.05.16-.14.33-.05l-.2 18.6c-.5.07-.78.46-1.13.81-.25-.13-.48.1-.78.09.06-.53.15-1 .18-1.53s-.49-.91-.59-1.4a.53.53 0 0 1 .22-.31 1.1 1.1 0 0 0 .13-1.65 6.06 6.06 0 0 0-.7-.66 4.34 4.34 0 0 1-1.5-2 2.47 2.47 0 0 0-.44-1 2.25 2.25 0 0 1 1.24-.87c.11.58.17.62.74.59a1.54 1.54 0 0 0 .4-.06.82.82 0 0 0 .66-.79 6.67 6.67 0 0 0 .05-1.12c0-.34 0-.72-.26-1-.3-.08-.59 0-.88-.05-.08-.21.05-.46-.09-.62s-.42.09-.6.16c-.35-.12-.34-.37-.32-.66 0-.7.26-1.44-.32-2-.08-.08-.05-.19-.05-.29a.37.37 0 0 0-.37-.4.78.78 0 0 1-.7-.57 1.9 1.9 0 0 0-1.54-1.26 5 5 0 0 0-5 1.72 4.24 4.24 0 0 0-1 3.66 9.33 9.33 0 0 1 .37 1.48 2.05 2.05 0 0 0 .48 1.38.35.35 0 0 1-.16.23 3.73 3.73 0 0 0-1.39 1.47 2 2 0 0 1-.27.43l-1.53 2c-.47.62-.54.82-.06 1.51a6.79 6.79 0 0 0-.31 3.25 12.17 12.17 0 0 0 1.37 4.31 1 1 0 0 1 0 1.39 2 2 0 0 0-.24.39.86.86 0 0 0 .3 1.32v.12a1.06 1.06 0 0 0-.88.79c-.14.06-.32.07-.38.16-.27.37-.66.36-1 .44s-.52.12-.78.2a6.13 6.13 0 0 0-1.65.75 3 3 0 0 0-.93-1 4.14 4.14 0 0 0-2.54-.55 5.87 5.87 0 0 0-3.08 1.32 4.34 4.34 0 0 0-1.71 2 16.57 16.57 0 0 0-.85 3.3 6.42 6.42 0 0 0 .46 3.2 10.72 10.72 0 0 1 .68 2.23.74.74 0 0 1-.26.82c-.1.08-.24.15-.18.33.24.28.54 0 .83.07a3.56 3.56 0 0 1-.21 1.84 7.59 7.59 0 0 1-1.35 2.15 5.26 5.26 0 0 0-1.37 3c-.05 1 0 2.06 0 3.08a.55.55 0 0 0 .39.55c.21-.48-.12-1 .24-1.5.19.66-.18 1.42.48 1.92a3.94 3.94 0 0 1 .32-1.28c.12.23 0 .48.11.67s.29-.14.33-.29A4.53 4.53 0 0 0 78 60a.62.62 0 0 1 .28-.65c0 1.64 0 1.65.44 1.93a5.33 5.33 0 0 1 .82-2.58c0 .39-.06.68.17.93a.76.76 0 0 0 .17-.44 3.41 3.41 0 0 1 .86-1.6 6.65 6.65 0 0 1 1.61-1.22A7 7 0 0 0 84.21 55c.11-.13.16-.34.36-.4a2.4 2.4 0 0 1-.17 1.4c-.11.23-.22.46-.36.67a2.9 2.9 0 0 0 .25 3.46 1.75 1.75 0 0 1 .4.82 4.31 4.31 0 0 1-.38 3.59 6.56 6.56 0 0 0-.38.73 1.45 1.45 0 0 0-.16.53 1.48 1.48 0 0 0 1.18 1.86c.3.11.61.23.62.62a.68.68 0 0 1-.33.33c-.6.32-.7.64-.43 1.32h5.59a1.61 1.61 0 0 0-1-1.95c-.19-.1-.4-.18-.6-.27s-.56-.24-.83-.39c-.42-.23-.7-.53-.5-1.07a2 2 0 0 0 .07-.4 1.11 1.11 0 0 0-.3-1.07 1 1 0 0 1-.32-.57 7.22 7.22 0 0 1 .3-3 8.63 8.63 0 0 1 3.5 2c-.09.2-.15.36-.32.43a2.41 2.41 0 0 1-.5-.26 1.42 1.42 0 0 0-1.83.88A2.67 2.67 0 0 0 89.51 67a2.59 2.59 0 0 1 .28.22 2.47 2.47 0 0 0 1.65.66.93.93 0 0 0 1-1 2.25 2.25 0 0 0-.13-.88c.17-.26.47-.32.62-.55s0-.58.13-.84c.15-.09.31 0 .46 0a.73.73 0 0 0 .72-.75 1.43 1.43 0 0 0-.11-.65 5.53 5.53 0 0 1-.3-1 1.28 1.28 0 0 0-.91-1 4.63 4.63 0 0 1-1.32-.63 11 11 0 0 1-2.38-2.49 1 1 0 0 1-.17-.92 3.57 3.57 0 0 1 .91-1.62A12.15 12.15 0 0 1 93 53.34a25.73 25.73 0 0 0 3-1.54.72.72 0 0 1 .63-.11l1.18.38c-.1.15-.18.26-.24.37a2 2 0 0 0-.23 1.43c.13.49.26.64.76.65a3.07 3.07 0 0 1 1.13.25 1.59 1.59 0 0 0 .83.15c.6-.1 1.21 0 1.83-.07.07.13 0 .29.2.39a2.39 2.39 0 0 1 1 .18.42.42 0 0 0 .51-.1c.27-.34.64-.32 1-.35.26.2.24.53.43.75a3.65 3.65 0 0 1 .54 1.14 1.32 1.32 0 0 1-.26 1.42 7.78 7.78 0 0 0-.7 1.06 1.68 1.68 0 0 0-.11 1.69 3.57 3.57 0 0 1 .13 2.64.78.78 0 0 1-.35.47 1.77 1.77 0 0 0-.92 2 1.24 1.24 0 0 0 .86 1.09.57.57 0 0 1 .41.52c-.16.37-.54.45-.84.62a1.28 1.28 0 0 0-.56 1.52c.57.08 5.51.06 5.89 0a.71.71 0 0 0 0-.45c-.09-1-.24-1.19-1.08-1.51-.21-.08-.42-.14-.62-.23-1-.41-1.07-.72-.61-1.66a.9.9 0 0 0-.23-1.18.7.7 0 0 1-.27-.76 7.16 7.16 0 0 1 .4-1.31 10.37 10.37 0 0 1 1.35-2.15 2 2 0 0 0 .4-1.74.87.87 0 0 1 .38-1.13 6.42 6.42 0 0 1 1.28-.73A7.36 7.36 0 0 0 112 55a3.73 3.73 0 0 0 .51-1.35 6.94 6.94 0 0 0 2.16 0 1.86 1.86 0 0 1 .75.06 1 1 0 0 1 .7 1.42 2.27 2.27 0 0 1-2.1 1.55 1.2 1.2 0 0 0-1.24.67c-.19.38-.46.39-.64.08s-.16-.36-.32-.46h-.18a1.68 1.68 0 0 0-1.18.15l-.2.14a12.58 12.58 0 0 0-1.13 1.93 2.14 2.14 0 0 0-.23 1.22 2.69 2.69 0 0 0 1.6 2.31.87.87 0 0 0 1.18-.36 7.23 7.23 0 0 1 1.05-1.3 2 2 0 0 1 1.58-.75 1.79 1.79 0 0 0 .82-.22.87.87 0 0 0 .56-.73 3 3 0 0 1 .73-1.6 6.45 6.45 0 0 1 2.83-2.23 2.59 2.59 0 0 0 .59-.29 1 1 0 0 0 .52-1 1.18 1.18 0 0 1 .07-.55 1.19 1.19 0 0 0-.78-1.81 2.26 2.26 0 0 0-.28-.11 2.09 2.09 0 0 1-1.37-1.36 5.23 5.23 0 0 0-1-1.41c-.29-.32-.64-.57-.95-.9a1 1 0 0 1 .67-.09 4.39 4.39 0 0 1 2 .84 1.51 1.51 0 0 0 1.79-.08.53.53 0 0 0 .19-.66 2.68 2.68 0 0 1-1.57-1.48c-.25-.49-.49-1-1.14-.81a5.46 5.46 0 0 1-.37-1.74c-.08-.6.24-1.16.17-1.75-.51-.39-1.1-.56-1.64-.94a4.32 4.32 0 0 0 1-1.89c.24 0 .45 0 .63-.07s.15-.48.3-.67c.18 0 .21.2.34.26s.29.09.43.16a2.24 2.24 0 0 1 .38.25 1.17 1.17 0 0 0 1.69 0 3.37 3.37 0 0 1 1-.57.5.5 0 0 0 .34-.35c.09-.27.18-.55.25-.83a.78.78 0 0 0-.21-.9c.18-.21.47 0 .61-.25.09-.53 0-.71-.55-.8zm-6.12 2.39a5.76 5.76 0 0 1-.79.78 8.12 8.12 0 0 0-1.52-2c-.39-.49-.39-.67 0-1.16a1.49 1.49 0 0 1 .95-.62c.16.27-.06.65.26.85s.59 0 .89.1a1 1 0 0 1 .18 1 1.64 1.64 0 0 0 .03 1.05zM99.81 15c-.09-.4-.14-.78-.49-1a2.65 2.65 0 0 0-1.32-.32 4.53 4.53 0 0 0-4.56 2.74c-.13.24-.24.48-.4.81a1.27 1.27 0 0 1 0-.93 5 5 0 0 1 3.59-3.3 3.13 3.13 0 0 1 2.39.32 1.61 1.61 0 0 1 .75.8 1.28 1.28 0 0 0 1 .9c-.43.42-.65-.16-.96-.02zm1.27 1.08a4.15 4.15 0 0 1 0 2.06c-.14-.18-.19-.41-.36-.56.24-.45.37-.21.11-1.48a.2.2 0 0 1 .25.02zm.39 3a.71.71 0 0 1-.6 0c.29-.4.33-.4.6 0zm.39-.51c-.27.12-.41-.17-.63-.2.4-.23.41-.22.63.2zm1 .18c-.32.51-.72.89-1 1.4a.63.63 0 0 1-.16-.76 1.13 1.13 0 0 1 1.21-.64zm.39.5a5.35 5.35 0 0 1 0 1.17.64.64 0 0 1-1.08.37 4 4 0 0 1 1.13-1.54zm-20.7 24.92c-.43-.58 0-1.36.93-1.61a14.67 14.67 0 0 0-.93 1.61zm18-35a1.56 1.56 0 0 1-1.52-.82 2.07 2.07 0 0 1 .78-2.73.77.77 0 0 1 1 .07c0 .07 0 .09-.07.11a1.47 1.47 0 0 0-.88 1.86 1.08 1.08 0 0 0 1.43.75 4.41 4.41 0 0 0 .43-.18 1.32 1.32 0 0 1-1.13.99zM55.54 21.69a.8.8 0 0 1 .39 1 .7.7 0 0 1-.29.12 1.73 1.73 0 0 0-1.3 1.58 8.44 8.44 0 0 0 0 .87v8.39a6.64 6.64 0 0 0 0 .77 1.11 1.11 0 0 0 .88 1.05.89.89 0 0 1 .62.47.72.72 0 0 1-.74.48h-3.19c-.51 0-.7-.22-.66-.75.1-.09.22-.06.33-.09a.64.64 0 0 0 .54-.64v-1.59-1.94a.62.62 0 0 0-.18-.5l-5.5-5.57a.17.17 0 0 0-.21-.07v8.41a4.34 4.34 0 0 0 .08 1 1.08 1.08 0 0 0 .85.91.78.78 0 0 1 .58.44c0 .2-.22.29-.37.44h-3.58c-.43 0-.6-.22-.62-.73a.26.26 0 0 1 .08-.06c.75-.17.86-.29.86-1.05V24.14c0-.88-.13-1.07-.91-1.37a.7.7 0 0 1 0-.44.56.56 0 0 1 .59-.56h1.83l6.5 6.65a.76.76 0 0 0 .08-.49v-3.38a5.86 5.86 0 0 0 0-.67 1 1 0 0 0-1-1h-.27a.66.66 0 0 1-.07-.43.58.58 0 0 1 .64-.66zM71 35.67a3.88 3.88 0 0 0-1.6-.67 14 14 0 0 0-2.47-.14h-1.31c-.27 0-.58 0-.64-.33s.23-.38.66-.39h.66a12.72 12.72 0 0 0 2.16-.14 2.8 2.8 0 0 0 2.28-2.88 9.8 9.8 0 0 0-.17-1.16 2.73 2.73 0 0 1-.05-1.21c.09-.32.24-.57.59-.61a.71.71 0 0 0 .6-.48c-.14-.25-.28-.47-.61-.47a2.12 2.12 0 0 0-1.91.67l-.87-.46a4.66 4.66 0 0 0-3.24-.4 3.55 3.55 0 0 0-2.63 4.21 3.6 3.6 0 0 0 1.16 1.89 1.85 1.85 0 0 0-1.05 1.28 1.8 1.8 0 0 0 .57 1.62 2.56 2.56 0 0 0 .42 4.34 4.67 4.67 0 0 0 1.78.53 19 19 0 0 0 3.48-.15 3.81 3.81 0 0 0 2.54-1.12 2.56 2.56 0 0 0-.35-3.93zm-1.93 3.65a2.63 2.63 0 0 1-1.33.44 4.9 4.9 0 0 1-2.6-.45A2.18 2.18 0 0 1 64 38.06c-.26-.67.31-1.81 1.21-1.69a7.35 7.35 0 0 0 1.06 0 7 7 0 0 1 1.86.15 2.47 2.47 0 0 1 1.14.62 1.37 1.37 0 0 1-.18 2.17zM65 28.86a1.35 1.35 0 0 1 2.18-.67 3.19 3.19 0 0 1 1.23 3.19 2 2 0 0 1-1.88 1.52 1.76 1.76 0 0 1-1.78-1.78v-.66a3.52 3.52 0 0 1 .25-1.6zm-54.07 7.09a8.39 8.39 0 0 1-3 .62 7.86 7.86 0 0 1-5-1.49A7.09 7.09 0 0 1 0 29.43 8 8 0 0 1 2.31 23a5.74 5.74 0 0 1 6.62-1.2 4.08 4.08 0 0 1 2.37 3 2.51 2.51 0 0 1-.55 2.2 1.56 1.56 0 0 1-1.83.47 1.58 1.58 0 0 1-.84-1.66 7.25 7.25 0 0 1 .18-1 1.94 1.94 0 0 0-2.38-2.53 3.43 3.43 0 0 0-2.2 1.51 5.33 5.33 0 0 0-.89 2.42 12.29 12.29 0 0 0 .9 6.64 4.5 4.5 0 0 0 3 2.65 3.64 3.64 0 0 0 2.27-.13V34v-2.25a2.85 2.85 0 0 0-.14-.9c-.15-.44-.42-.63-1.13-.81-.08-.55.08-.76.62-.76h3.39a.73.73 0 0 1 .65.41.81.81 0 0 1-.56.46.93.93 0 0 0-.79.85 9.21 9.21 0 0 0 0 1v3.42a1 1 0 0 1-.07.53zm31.55-.39a1.32 1.32 0 0 1-1.28-1.43v-.46-9.61c0-.71.11-1.31.91-1.45.08-.85 0-1-.81-1h-1.38c-.76 0-.89.13-.89.87v5.66h-.13l-.16-.14a3.48 3.48 0 0 0-3.36-.75A4.62 4.62 0 0 0 32 30.81a4.62 4.62 0 0 0 4.87 5.86A4.68 4.68 0 0 0 39 36c.23.16.35.41.66.4h2.33c.45-.03.64-.4.49-.84zM39 34a1 1 0 0 1-.34.81 2.52 2.52 0 0 1-4.08-.72 5 5 0 0 1-.27-3.2 4.56 4.56 0 0 1 .69-1.74 2 2 0 0 1 3.38 0 3.19 3.19 0 0 1 .62 1.63 15.34 15.34 0 0 1 0 1.62V34zm36.64-6a3.93 3.93 0 0 1 1.83-1.19 2.8 2.8 0 0 1 3.65 2.59c.1 1.31 0 2.62 0 3.94V34c.07 1 .35 1.34 1.32 1.57.1.59-.09.84-.65.84h-2.27c-.53 0-.71-.19-.71-.75v-5.57a7.25 7.25 0 0 0-.08-1.17 1 1 0 0 0-1.73-.75 3.44 3.44 0 0 0-1.36 2.52 25.75 25.75 0 0 0 0 3.37c.06 1 .34 1.25 1.29 1.47.12.58-.08.84-.64.85h-3a.73.73 0 0 1-.77-.48.8.8 0 0 1 .49-.46.65.65 0 0 0 .46-.61 2.81 2.81 0 0 0 0-.46V24v-.2c0-.74-.19-1-.89-1.23-.13-.65 0-.89.69-.89h1.67c.54 0 .69.16.69.7v5.22a.55.55 0 0 0 .04.4zm-44.5 3a4.52 4.52 0 0 0-4.33-4 4 4 0 0 0-2 .51 5.08 5.08 0 0 0-1.23 7.67 4.2 4.2 0 0 0 6.63-.18 5.22 5.22 0 0 0 .96-4.06zm-2.32 1.26a5.74 5.74 0 0 1-.2 1.76 2.75 2.75 0 0 1-.5 1 1.68 1.68 0 0 1-2.73-.07 3.11 3.11 0 0 1-.56-1.56 10.18 10.18 0 0 1 .14-3.5 2.66 2.66 0 0 1 .59-1.16 1.58 1.58 0 0 1 2.5.11 3.65 3.65 0 0 1 .64 1.8 8.41 8.41 0 0 1 .15 1.55zm-14.2-4.33a4.81 4.81 0 0 0-1.77 3.94 4.9 4.9 0 0 0 1.38 3.48 4.19 4.19 0 0 0 5.92.24 5.25 5.25 0 0 0 .2-7.31 4.18 4.18 0 0 0-5.73-.35zm4.52 6a2.67 2.67 0 0 1-.47 1 1.68 1.68 0 0 1-2.79-.09 3.83 3.83 0 0 1-.58-2v-.92a7.2 7.2 0 0 1 .2-2.12 2.87 2.87 0 0 1 .5-1.08 1.59 1.59 0 0 1 2.59.09 3.59 3.59 0 0 1 .56 1.57 8.53 8.53 0 0 1-.01 3.62zM83.83 28c-.37 0-.73 0-.91-.45a.73.73 0 0 1 .86-.44c.13-.13.08-.28.08-.41v-2.81c0-.8-.16-1-.89-1.28-.17-.7 0-1 .72-1h1.93a.74.74 0 0 1 .4.74v4.15a1.3 1.3 0 0 0 0 .52c.46.2 1.15-.23 1.47.48-.3.73-1 .32-1.45.48-.1.08-.05.21-.05.32v6.14a2.92 2.92 0 0 0 0 .51.52.52 0 0 0 .49.49.8.8 0 0 1 .65.45.71.71 0 0 1-.75.44 4.32 4.32 0 0 1-1.2-.16 2.12 2.12 0 0 1-1.37-2.12v-5a6 6 0 0 0 .02-1.05zm-23.28 7.55c0 .59-.15.83-.62.83h-3.07c-.49 0-.67-.26-.6-.81.78-.2.91-.36.91-1.19v-4.24-.56a1.44 1.44 0 0 0-.91-1.4c-.09-.72.07-.9.76-.91h1.62c.51 0 .7.18.7.7v5.73a3.1 3.1 0 0 0 .08.86 1.24 1.24 0 0 0 1.13.99zm-51.41 3v6.38c0 .21.08.46-.21.57-.33-.06-.28-.33-.28-.56v-3.58-3.42c0-.28 0-.53.44-.48l3.11 4.59 3.11-4.59c.3-.06.42.07.44.32v7.21c0 .2 0 .42-.24.51s-.24-.31-.24-.52v-6.46a1.16 1.16 0 0 0-.38.44l-2.33 3.46c-.3.44-.42.44-.72 0L9.52 39l-.3-.41zm19.93-1.11H26.7a.6.6 0 0 0-.48.12v7.81a.44.44 0 0 0 .32.12h2.58a4.14 4.14 0 0 0 1.24-.22 3.88 3.88 0 0 0 2.55-4 3.79 3.79 0 0 0-3.83-3.82zm.17 7.56c-.84.05-1.68 0-2.57 0v-7.06a16.54 16.54 0 0 1 3.41.16 3.26 3.26 0 0 1 2.31 2.81 4 4 0 0 1-.29 2.15A3.18 3.18 0 0 1 29.24 45zm28.08 0c-.61-1.57-1.23-3.13-1.85-4.69l-1.17-3a.47.47 0 0 0-.43 0l-1.35 3.42L50.84 45c-.16.4-.11.45.33.5l1.06-2.59h3.69L57 45.5c.45-.05.48-.09.32-.5zm-4.87-2.62l1.63-4.25 1.64 4.25zm-4.07-2.49c-.08.22-.21.25-.42.19a3.54 3.54 0 0 0-2.07-1.93 3.32 3.32 0 0 0-2.18 0 3.51 3.51 0 0 0 .18 6.71c1.6.46 3-.22 4.1-2a.44.44 0 0 1 .37.14c.15.55-1.35 2-2.42 2.32a3.93 3.93 0 0 1-4.88-2.52 4 4 0 0 1 2.28-5 3.87 3.87 0 0 1 5.04 2.08zM19.34 38v3.15a1.71 1.71 0 0 0 .71.05h2.83c.19 0 .41 0 .4.25s-.23.25-.42.25h-3.51V45c.11.1.24.06.38.06h3.34c.16 0 .32 0 .33.23s-.13.26-.3.26h-4.09s-.06 0-.14-.07v-7.92c.13-.15.3-.11.44-.11h3.84a.23.23 0 0 1 .23.22.23.23 0 0 1-.2.25 1.66 1.66 0 0 1-.35 0h-3a.86.86 0 0 0-.49.08zm40.38-13.34a1.58 1.58 0 0 1-3.16 0 1.53 1.53 0 0 1 1.57-1.57 1.55 1.55 0 0 1 1.59 1.57zM36.64 45v-7.09c-.54-.16-1.11.12-1.61-.17 0-.3.18-.35.38-.35h3c.19 0 .35 0 .33.28s-.19.21-.35.21h-1.2V45a6.65 6.65 0 0 0 1.07 0 1.76 1.76 0 0 1 .4 0 .21.21 0 0 1 .14.25.21.21 0 0 1-.15.18 1 1 0 0 1-.25 0h-3.1c-.16 0-.27-.08-.26-.24a.24.24 0 0 1 .27-.25h1.06a.34.34 0 0 0 .27.06zM60 44.9v-7c0-.19 0-.43.22-.44s.28.23.28.44V45a5 5 0 0 0 1 0h2.63c.19 0 .41-.06.52.2a.29.29 0 0 1-.32.3h-4.11c-.06 0-.12-.06-.16-.08a.89.89 0 0 1-.06-.52z" fill="#fff"/></svg>