<svg width="40" height="40" viewBox="0 0 40 40" xmlns="http://www.w3.org/2000/svg"><path d="M38.627 5.482c.57.569.57 1.502 0 2.07l-11.41 11.4a1.472 1.472 0 0 0 0 2.073L38.621 32.43c.569.57.569 1.502 0 2.073l-4.155 4.14a1.48 1.48 0 0 1-2.076 0L20.989 27.24a1.474 1.474 0 0 0-2.074 0L7.504 38.635a1.475 1.475 0 0 1-2.075 0L1.28 34.489a1.472 1.472 0 0 1 0-2.073l11.415-11.398a1.472 1.472 0 0 0 0-2.073L1.289 7.54a1.468 1.468 0 0 1 0-2.073l4.153-4.142a1.478 1.478 0 0 1 2.076.002l11.4 11.4a1.473 1.473 0 0 0 2.075.002l11.41-11.394a1.477 1.477 0 0 1 2.075 0l4.15 4.147z"/></svg>