<svg width="19" height="19" viewBox="0 0 19 19" xmlns="http://www.w3.org/2000/svg"><path d="M9.5 1.425c4.452 0 8.075 3.623 8.075 8.075 0 4.452-3.623 8.075-8.075 8.075-4.452 0-8.075-3.623-8.075-8.075 0-4.452 3.623-8.075 8.075-8.075zM9.5 0A9.5 9.5 0 1 0 19 9.5 9.5 9.5 0 0 0 9.5 0z"/><path d="M6.321 4.288c.634-.12 1.049.595 1.365 1.088.308.479.686 1.04.533 1.664-.085.35-.4.54-.64.746-.235.204-.594.39-.682.704-.142.507.17 1.04.362 1.344a7.72 7.72 0 0 0 1.643 1.855c.327.268.78.625 1.236.533.68-.137.86-.976 1.6-1.088.704-.106 1.18.405 1.579.747.383.331 1.001.755.96 1.323-.025.326-.287.528-.513.725-.23.201-.433.427-.66.575-.553.36-1.23.537-2.006.513-.762-.024-1.369-.283-1.92-.576-1.076-.575-1.927-1.382-2.729-2.283-.788-.885-1.517-1.933-1.92-3.091-.502-1.447-.236-2.933.577-3.86.138-.158.355-.322.554-.491.199-.17.382-.375.661-.428z"/></svg>