<svg width="20" height="27" viewBox="0 0 20 27" xmlns="http://www.w3.org/2000/svg"><title>2</title><path d="M17.64 21.28H9.2s2.92-2.52 5.28-4.64c2.24-2.04 4.68-4.24 4.68-8.32C19.16 3.4 14.44 0 9.64 0 4.52 0 0 2.76 0 9.4c0 .88.28 1.2 1.08 1.2H4.6c.84 0 1.04-.44 1.04-1.12 0-2.32 1.88-4.08 4.04-4.08 1.92 0 3.4.88 3.4 2.96S10.56 12.6 8 14.8C4.12 18.08.72 21.08.72 21.08c-.36.28-.72.8-.72 1.68v2.96c0 .92.16 1.16 1.08 1.16h16.56c.92 0 1.16-.44 1.16-1.16v-3.28c0-.72-.24-1.16-1.16-1.16z" fill="#FFF" fill-rule="evenodd"/></svg>