<svg width="20" height="27" viewBox="0 0 20 27" xmlns="http://www.w3.org/2000/svg"><title>3</title><path d="M13.48 10.88l5-5.32c.32-.4.44-.64.44-1.16V1.16c0-.72-.24-1.16-1.16-1.16H2.48c-.92 0-1.16.44-1.16 1.16V4.4c0 .68.24 1.16 1.16 1.16h8.68l-4.2 4.4c-.32.36-.48.76-.48 1.36v2.56c0 .92.16 1.16 1.08 1.16h1.8c2.76 0 4.24 1.04 4.24 3.16 0 2.16-2.08 3.16-3.76 3.16-1.32 0-3.56-.44-4.16-2.36-.16-.68-.32-.88-1-.88H1.12c-.88 0-1.12.16-1.12 1.2 0 4.28 4.56 7.56 9.6 7.56 5.4-.04 9.96-2.96 9.96-8.72 0-4.12-3.28-6.64-6.08-7.28z" fill="#FFF" fill-rule="evenodd"/></svg>