<svg x="0px" y="0px" width="116px" height="32px" xmlns="http://www.w3.org/2000/svg" viewBox="0 0 116 32">
  <path d="M73.52,0.64A1,1,0,0,1,74,1.94a0.52,0.52,0,0,1-.4.2,2.24,2.24,0,0,0-1.7,2v13a1.39,1.39,0,0,0,1.2,1.39,1,1,0,0,1,.8.6,1,1,0,0,1-1,.6h-4.2a0.78,0.78,0,0,1-.9-0.6v-0.4a0.6,0.6,0,0,1,.4-0.1,1,1,0,0,0,.8-0.8V13.17a1.83,1.83,0,0,0-.2-0.7l-7.3-7.26a0.37,0.37,0,0,0-.3-0.1v11a5.64,5.64,0,0,0,.1,1.29,1.37,1.37,0,0,0,1.1,1.19,1.16,1.16,0,0,1,.8.6,2.64,2.64,0,0,1-.5.6h-4.8c-0.6,0-.8-0.3-0.8-1l0.1-.1c1-.2,1.1-0.4,1.1-1.39V3.63a1.5,1.5,0,0,0-1-1.79h-0.2a1.26,1.26,0,0,1-.1-0.6,0.85,0.85,0,0,1,.7-0.8h2.4l8.8,8.95A1.46,1.46,0,0,0,69,8.7V3.43A1.48,1.48,0,0,0,67.72,2h-0.4a1.26,1.26,0,0,1-.1-0.6A0.78,0.78,0,0,1,67.87.55h0.25l5.4,0.1m-59,18.69a11,11,0,0,1-4,.8,10.36,10.36,0,0,1-6.6-2A9.41,9.41,0,0,1,0,10.79,10.71,10.71,0,0,1,3,2.33,7.66,7.66,0,0,1,11.84.74a5.32,5.32,0,0,1,3.1,3.88,3.36,3.36,0,0,1-.7,2.88,2,2,0,0,1-2.4.6A1.88,1.88,0,0,1,10.64,6c0.1-.4.1-0.8,0.2-1.29a2.48,2.48,0,0,0-3.1-3.28,4.68,4.68,0,0,0-2.9,2,8.29,8.29,0,0,0-1.2,3.08,16,16,0,0,0,1.2,8.65,6.15,6.15,0,0,0,3.9,3.48,4.46,4.46,0,0,0,3-.2V13.57a5,5,0,0,0-.2-1.19A1.78,1.78,0,0,0,10,11.28c-0.1-.7.1-1,0.8-1h4.5a1.05,1.05,0,0,1,.9.5,1.06,1.06,0,0,1-.7.6,1.19,1.19,0,0,0-.9,1.19,6.08,6.08,0,0,0-.1,1.39v5.37M100.11,8.9a5.65,5.65,0,0,1,2.4-1.59,3.78,3.78,0,0,1,4.7,2.39,3.51,3.51,0,0,1,.2,1c0.1,1.69,0,3.48,0,5.17v0.89a1.8,1.8,0,0,0,1.61,2h0.19c0.1,0.8-.1,1.09-0.9,1.09h-3.1a0.89,0.89,0,0,1-1-.6V11.58a7.49,7.49,0,0,0-.1-1.49,1.34,1.34,0,0,0-1.46-1.2h0a1.49,1.49,0,0,0-.7.3,4.39,4.39,0,0,0-1.8,3.28,31.94,31.94,0,0,0,0,4.37c0.1,1.29.5,1.59,1.7,1.89,0.2,0.8-.1,1.09-0.8,1.09H97a1.1,1.1,0,0,1-1-.6,1.06,1.06,0,0,1,.7-0.6,0.87,0.87,0,0,0,.6-0.8V3.33a1.37,1.37,0,0,0-1.13-1.58H96.11c-0.2-.89.1-1.19,0.9-1.19h2.2a0.72,0.72,0,0,1,.9.48V8.3a0.62,0.62,0,0,0,0,.6M110.9,9a1,1,0,0,1-1.2-.6,1.08,1.08,0,0,1,1.1-.6,0.75,0.75,0,0,0,.2-0.5V3.63A1.38,1.38,0,0,0,110,2l-0.08,0h-0.1c-0.2-.89,0-1.29,1-1.29h2.6a0.87,0.87,0,0,1,.5,1V7.11a1.68,1.68,0,0,0,.1.7c0.6,0.3,1.5-.3,2,0.6-0.4,1-1.3.4-1.9,0.6a0.4,0.4,0,0,0-.2.4v8.05a2,2,0,0,0,.1.7,0.75,0.75,0,0,0,.7.7,1.15,1.15,0,0,1,.9.6,1.1,1.1,0,0,1-1,.6,8.79,8.79,0,0,1-1.6-.2A2.81,2.81,0,0,1,111.1,17c-0.1-2.19,0-4.37,0-6.46A7.64,7.64,0,0,0,110.9,9M80.11,18.84c0,0.8-.2,1.09-0.8,1.09h-4.1c-0.7,0-.9-0.3-0.8-1a1.27,1.27,0,0,0,1.2-1.59V11.08a2,2,0,0,0-1.2-1.89c-0.1-.89.1-1.19,1-1.19h2.1a0.78,0.78,0,0,1,.9.6v7.85a3.71,3.71,0,0,0,.1,1.09,2.11,2.11,0,0,0,1.6,1.29m-68,3.88v8.35a0.66,0.66,0,0,1-.3.8,0.57,0.57,0,0,1-.4-0.7h0V22c0-.4,0-0.7.6-0.6l4.1,6.07,4.1-6.07a0.37,0.37,0,0,1,.49.18v9.66a0.61,0.61,0,0,1-.3.7c-0.4-.1-0.3-0.4-0.3-0.7V22.82a1,1,0,0,0-.5.6L16.54,28c-0.4.6-.6,0.6-1,0l-3-4.47-0.4-.8h0m26.59,8.45c-1.1.1-2.2,0-3.4,0V21.92c1.5,0.1,3-.2,4.5.2a4.27,4.27,0,0,1,3.1,3.68,5.27,5.27,0,0,1-.4,2.78,4.2,4.2,0,0,1-3.8,2.59m-0.2-9.84h-3.1a0.64,0.64,0,0,0-.6.2V31.77a0.76,0.76,0,0,0,.4.2h3.4a4.17,4.17,0,0,0,1.6-.3,5,5,0,0,0,3.4-5.17,5.12,5.12,0,0,0-5.08-5.17h0m30.89,6.46,2.2-5.57c0.8,1.89,1.5,3.68,2.2,5.57h-4.4Zm6.5,3.38c-0.8-2-1.6-4.08-2.4-6.16l-1.6-3.88a0.64,0.64,0,0,0-.6,0l-1.8,4.47-2.2,5.57c-0.2.5-.2,0.6,0.4,0.7l1.4-3.38H74l1.4,3.38c0.6-.1.7-0.2,0.5-0.7h0ZM64,24.51a0.46,0.46,0,0,1-.5.3h-0.1a4.44,4.44,0,0,0-2.7-2.49,4.8,4.8,0,0,0-2.9,0,4.54,4.54,0,0,0-3,5.67A4.72,4.72,0,0,0,58,31.07c2.1,0.6,3.9-.3,5.4-2.59a0.48,0.48,0,0,1,.5.2c0.2,0.7-1.8,2.59-3.2,3.08a5.22,5.22,0,0,1-3.2-9.94A5,5,0,0,1,64,24.51M25.63,22V26.2a2.78,2.78,0,0,0,.9.1h3.8c0.3,0,.6,0,0.5.3a0.49,0.49,0,0,1-.6.3h-4.7v4.28a0.75,0.75,0,0,0,.5.1h4.4c0.2,0,.4,0,0.4.3a0.42,0.42,0,0,1-.3.4H25a0.1,0.1,0,0,1-.1-0.1V21.42a0.48,0.48,0,0,1,.5-0.1h5.1a0.27,0.27,0,0,1,.3.3h0a0.25,0.25,0,0,1-.19.3H26.13a1.09,1.09,0,0,0-.5.1M79,4.52a2,2,0,0,1-2,2.09h-0.1a2.1,2.1,0,0,1-2.1-2.09,2,2,0,0,1,2-2h0.1A2,2,0,0,1,79,4.42h0v0.1M48.53,31.17V21.92c-0.7-.2-1.5.2-2.1-0.2a0.51,0.51,0,0,1,.4-0.5h4.1c0.3,0,.5.1,0.4,0.4a0.42,0.42,0,0,1-.5.3h-1.6v9.35h1.9a0.34,0.34,0,0,1,.2.4,0.38,0.38,0,0,1-.2.2h-4.4a0.25,0.25,0,0,1-.3-0.19h0v-0.1a0.27,0.27,0,0,1,.24-0.3h1.56a0.6,0.6,0,0,0,.4-0.1m30.89,0.4a1.68,1.68,0,0,1-.1-0.7V21.72c0-.2,0-0.6.3-0.6a0.49,0.49,0,0,1,.41.56v9.39h4.8a0.52,0.52,0,0,1,.69.26v0a0.43,0.43,0,0,1-.4.4h-5.5a0.16,0.16,0,0,1-.2-0.11,0.16,0.16,0,0,1,0-.09M41.23,12.77a5.89,5.89,0,0,0-5.7-5.17,5.21,5.21,0,0,0-2.7.7,6.6,6.6,0,0,0-2.4,8.95,7.59,7.59,0,0,0,.8,1.09,5.71,5.71,0,0,0,8,.7,6.44,6.44,0,0,0,.8-0.89A6.93,6.93,0,0,0,41.23,12.77Zm-3,1.69a8.43,8.43,0,0,1-.3,2.29,3.27,3.27,0,0,1-.7,1.29,2.26,2.26,0,0,1-3.15.44l0,0a2.35,2.35,0,0,1-.5-0.5,3.69,3.69,0,0,1-.7-2,14.08,14.08,0,0,1,.2-4.57,2.73,2.73,0,0,1,.8-1.49,2.1,2.1,0,0,1,2.94-.25l0.05,0a1.37,1.37,0,0,1,.3.4,4,4,0,0,1,.8,2.29A6.58,6.58,0,0,1,38.23,14.46ZM26.93,9.29a5.7,5.7,0,0,0-7.6-.5A6.45,6.45,0,0,0,17,14a6.44,6.44,0,0,0,1.8,4.57,5.55,5.55,0,0,0,7.8.3,6.82,6.82,0,0,0,.3-9.55h0Zm-1.6,7.46a3.07,3.07,0,0,1-.6,1.29,2.24,2.24,0,0,1-3.1.5l-0.6-.6a5,5,0,0,1-.8-2.59V14.17a6.65,6.65,0,0,1,.3-2.78,3.66,3.66,0,0,1,.7-1.39,2.21,2.21,0,0,1,3-.4,1,1,0,0,1,.4.5,5,5,0,0,1,.8,2A10.57,10.57,0,0,1,25.33,16.75Zm30.89,2.09a1.7,1.7,0,0,1-1.7-1.71s0-.05,0-0.08V3.73c0-.89.1-1.69,1.2-1.89,0.1-1.09-.1-1.29-1.1-1.29h-1.8c-1,0-1.2.2-1.2,1.09V9.1L51.42,9l-0.2-.2a4.5,4.5,0,0,0-4.4-1,5.87,5.87,0,0,0-4.4,4.77,6.07,6.07,0,0,0,4.14,7.54,6.14,6.14,0,0,0,5-.68,1.05,1.05,0,0,0,.9.5h3.1a0.68,0.68,0,0,0,.79-0.54V19.34A0.74,0.74,0,0,0,56.22,18.84Zm-4.6-2.09a1.26,1.26,0,0,1-.5,1.09,3.45,3.45,0,0,1-4.8,0,2.35,2.35,0,0,1-.6-0.89,6.65,6.65,0,0,1-.4-4.18,5,5,0,0,1,.9-2.29,2.56,2.56,0,0,1,3.47-1l0.13,0.08a2,2,0,0,1,.9.89,4,4,0,0,1,.7,2.09,14.61,14.61,0,0,1,.1,2.09,15.31,15.31,0,0,1,.1,2.09h0ZM94,18.94a4.32,4.32,0,0,0-2.2-.89,18.38,18.38,0,0,0-3.3-.2h-1.6c-0.4,0-.8.1-0.9-0.4-0.1-.3.3-0.5,0.9-0.5h0.9a28.39,28.39,0,0,0,2.9-.2,3.59,3.59,0,0,0,3-3.78,7.64,7.64,0,0,0-.2-1.49,4.28,4.28,0,0,1-.1-1.59,1.09,1.09,0,0,1,.8-0.8A0.87,0.87,0,0,0,95,8.5a0.76,0.76,0,0,0-.8-0.6,2.67,2.67,0,0,0-2.5.89l-1.2-.6a5.87,5.87,0,0,0-4.3-.4,4.63,4.63,0,0,0-3.5,5.47,5,5,0,0,0,1.5,2.49,2.42,2.42,0,0,0-1.4,1.69,2.15,2.15,0,0,0,.8,2,3.32,3.32,0,0,0-.71,4.66v0a3.47,3.47,0,0,0,1.3,1.09,6.13,6.13,0,0,0,2.4.7,23.75,23.75,0,0,0,4.6-.2,5.33,5.33,0,0,0,3.4-1.49,3.39,3.39,0,0,0,.1-4.67C94.31,19.24,94.21,19,94,18.94ZM86,10a1.73,1.73,0,0,1,2.12-1.22l0.08,0a1.61,1.61,0,0,1,.7.4,4,4,0,0,1,1.6,4.18,2.56,2.56,0,0,1-2.5,2,2.4,2.4,0,0,1-2.4-2.29v-1A5.5,5.5,0,0,1,86,10Zm5.4,13.72a4.8,4.8,0,0,1-1.8.6,7,7,0,0,1-3.5-.6,2.93,2.93,0,0,1-1.5-1.59,1.6,1.6,0,0,1,1-2l0.13,0a1.09,1.09,0,0,1,.5-0.1h1.4a10.6,10.6,0,0,1,2.5.2,2.75,2.75,0,0,1,1.5.8,1.83,1.83,0,0,1,.2,2.49,1.38,1.38,0,0,1-.4.3h0Z" fill="#fff" />
</svg>
